<?xml version="1.0" encoding="UTF-8" standalone="no"?>
<!-- Created with Inkscape (http://www.inkscape.org/) -->

<svg
   width="210mm"
   height="297mm"
   viewBox="0 0 210 297"
   version="1.1"
   id="svg5"
   xml:space="preserve"
   inkscape:version="1.2.1 (9c6d41e410, 2022-07-14)"
   sodipodi:docname="tdd.svg"
   xmlns:inkscape="http://www.inkscape.org/namespaces/inkscape"
   xmlns:sodipodi="http://sodipodi.sourceforge.net/DTD/sodipodi-0.dtd"
   xmlns="http://www.w3.org/2000/svg"
   xmlns:svg="http://www.w3.org/2000/svg"><sodipodi:namedview
     id="namedview7"
     pagecolor="#ffffff"
     bordercolor="#666666"
     borderopacity="1.0"
     inkscape:showpageshadow="2"
     inkscape:pageopacity="0.0"
     inkscape:pagecheckerboard="0"
     inkscape:deskcolor="#d1d1d1"
     inkscape:document-units="mm"
     showgrid="false"
     showguides="true"
     inkscape:zoom="0.89263468"
     inkscape:cx="-22.965722"
     inkscape:cy="434.6683"
     inkscape:window-width="3440"
     inkscape:window-height="1369"
     inkscape:window-x="1912"
     inkscape:window-y="-8"
     inkscape:window-maximized="1"
     inkscape:current-layer="layer1" /><defs
     id="defs2" /><g
     inkscape:label="Layer 1"
     inkscape:groupmode="layer"
     id="layer1"><path
       style="fill:#000000;stroke-width:0.264583"
       id="path302"
       d="" /><g
       id="g1311"
       transform="translate(5.7238852,18.111059)"
       inkscape:export-filename="tdd.png"
       inkscape:export-xdpi="16.130434"
       inkscape:export-ydpi="16.130434"><rect
         style="opacity:0;fill:#ffffff;fill-opacity:1;stroke-width:1.43665;paint-order:markers stroke fill;stop-color:#000000"
         id="rect1304"
         width="201.55688"
         height="201.55688"
         x="-1.5023276"
         y="29.610498" /><g
         id="g1250"><path
           id="path504"
           style="opacity:1;fill:#d35151;fill-opacity:1;stroke-width:1.63533;paint-order:markers stroke fill;stop-color:#000000"
           d="M 99.276111,42.979289 A 25.639223,25.639223 0 0 0 75.050199,60.277458 80.628929,80.628929 0 0 0 29.422493,96.909847 l 5.105632,-1.862935 6.891569,-2.514059 2.514575,6.891569 2.086178,5.716968 A 62.184875,62.184875 0 0 1 76.083728,79.530546 25.639223,25.639223 0 0 0 99.276111,94.257296 25.639223,25.639223 0 0 0 122.47418,79.519177 62.184875,62.184875 0 0 1 150.31899,101.6677 l 12.64729,3.28248 3.28042,-12.637985 A 80.628929,80.628929 0 0 0 123.52269,60.286243 25.639223,25.639223 0 0 0 99.276111,42.979289 Z" /><path
           id="path504-3"
           style="opacity:1;fill:#6aaa78;fill-opacity:1;stroke-width:1.63533;paint-order:markers stroke fill;stop-color:#000000"
           d="m 171.47894,101.35402 -1.4118,5.43946 -1.8433,7.10034 -7.10034,-1.84278 -5.64824,-1.46606 a 62.184875,62.184875 0 0 1 5.98569,26.58701 62.184875,62.184875 0 0 1 -1.10226,11.51764 25.639223,25.639223 0 0 0 -1.43196,-0.0413 25.639223,25.639223 0 0 0 -25.63874,25.63926 25.639223,25.639223 0 0 0 3.31194,12.58735 62.184875,62.184875 0 0 1 -27.42158,11.68197 l -9.416997,9.417 9.234057,9.23406 a 80.628929,80.628929 0 0 0 42.26926,-18.45727 25.639223,25.639223 0 0 0 7.66206,1.17615 25.639223,25.639223 0 0 0 25.63927,-25.63926 25.639223,25.639223 0 0 0 -7.05074,-17.65577 80.628929,80.628929 0 0 0 2.39004,-19.45979 80.628929,80.628929 0 0 0 -8.42636,-35.81797 z" /><path
           id="path504-6"
           style="opacity:1;fill:#5691f7;fill-opacity:1;stroke-width:1.63533;paint-order:markers stroke fill;stop-color:#000000"
           d="m 37.0427,101.93848 -12.251448,4.47001 a 80.628929,80.628929 0 0 0 -6.143811,30.7635 80.628929,80.628929 0 0 0 2.391585,19.46754 25.639223,25.639223 0 0 0 -7.0528,17.64802 25.639223,25.639223 0 0 0 25.639262,25.63926 25.639223,25.639223 0 0 0 7.659998,-1.17563 80.628929,80.628929 0 0 0 51.926029,19.04741 l -4.637443,-4.63692 -5.18728,-5.18728 5.18728,-5.1878 3.482475,-3.48248 a 62.184875,62.184875 0 0 1 -36.08927,-12.45712 25.639223,25.639223 0 0 0 3.297473,-12.55944 25.639223,25.639223 0 0 0 -25.639262,-25.63926 25.639223,25.639223 0 0 0 -1.422652,0.0532 62.184875,62.184875 0 0 1 -1.11156,-11.52953 62.184875,62.184875 0 0 1 4.439522,-22.93297 z" /></g></g></g></svg>
